# xmcd CD database file generated by OrangeCD 5.2
#
# Track frame offsets:
#	150
#	31895
#	60533
#	79048
#	125199
#	139337
#	158095
#	185971
#	213130
#	225609
#	244757
#	276524
#	290304
#	304242
#	317526
#
# Disc length: 4426 seconds
#
# Revision: 0
# Processed by: cddbd v1.5.1PL0 Copyright (c) Steve Scherf et al.
# Submitted via: OrangeCD 5.2
#
DISCID=dc11480f
DTITLE=Sammy Price - Americans Swinging In Paris - Featuring Emmett Berry (1956
DTITLE=)
DYEAR=2003
DGENRE=Boogie
TTITLE0=Swingin` The Berrys
TTITLE1=I'm Wondering
TTITLE2=Boogie Woogie A La Parisienne
TTITLE3=Sammy Plays The Blues For Mezz
TTITLE4=The Sheik Of Araby
TTITLE5=Avalon
TTITLE6=U.S.I.S. Blues
TTITLE7=Hot Club Boogie
TTITLE8=Love For Sale
TTITLE9=Goodbye Paris
TTITLE10=Mister New Orleans Blue
TTITLE11=Jelly Roll Junior Blues
TTITLE12=D'Accord Mon Pote, Boogie
TTITLE13=Twelve O'Clock Blues 
TTITLE14=Sad Blues
EXTD=
EXTT0=
EXTT1=
EXTT2=
EXTT3=
EXTT4=
EXTT5=
EXTT6=
EXTT7=
EXTT8=
EXTT9=
EXTT10=
EXTT11=
EXTT12=
EXTT13=
EXTT14=
PLAYORDER=
